<?xml version="1.0" encoding="utf-8"?>
<!-- Generator: Adobe Illustrator 19.0.0, SVG Export Plug-In . SVG Version: 6.00 Build 0)  -->
<svg version="1.1" xmlns="http://www.w3.org/2000/svg" xmlns:xlink="http://www.w3.org/1999/xlink" x="0px" y="0px"
	 viewBox="0 0 1000 748.4" style="enable-background:new 0 0 1000 748.4;" xml:space="preserve">
<style type="text/css">
	.st0{fill:#E6E6E6;}
	.st1{fill:#9966FF;}
	.st2{fill:#1A1A1A;}
	.st3{fill:#CCCCCC;}
	.st4{fill:#333333;}
	.st5{fill:#FFFFFF;}
	.st6{fill:#7733FF;}
	.st7{fill:#B3B3B3;}
	.st8{fill:#FFA993;}
	.st9{fill:#FF7D71;}
	.st10{fill:#FFB29E;}
	.st11{fill:#FF7167;}
</style>
<g id="Layer_3">
</g>
<g id="Layer_1">
</g>
<g id="Layer_2">
	<g>
		<path class="st0" d="M119.3,533.2c66.4,159.4,158.1,74.3,274.7,22.3c67.5-30.1,116.2-31.9,185.2-6.4
			c78.5,29,168.6,53.5,238.6-14.5c157.9-153.2,6.4-473.3-182-435.5c-63.8,12.8-112.6,73.1-175,85.1
			c-60.7,11.7-111.1-52.9-162.3-80.4C208,55.2,138.5,124.4,105.4,224.7C70.8,329.7,79.9,433,119.3,533.2z"/>
		<g>
			<path class="st1" d="M1000,100.5v194.1c0,11.1-9,20.1-20.1,20.1H767.8c-11.1,0-20.1-9-20.1-20.1V100.5c0-11.1,9-20.1,20.1-20.1
				h212.1C991,80.4,1000,89.5,1000,100.5z"/>
			<path class="st2" d="M1000,100.5v22.3H747.6v-22.3c0-11.1,9-20.1,20.1-20.1h212.1C991,80.4,1000,89.5,1000,100.5z"/>
			<path class="st1" d="M969.8,101.5c0,3.9,3.2,7,7,7c3.9,0,7-3.2,7-7c0-3.9-3.2-7-7-7C973,94.5,969.8,97.7,969.8,101.5z"/>
			<circle class="st1" cx="950.5" cy="101.5" r="7"/>
			<path class="st3" d="M856.9,101.5c0,3.9-4.4,7-9.7,7h-74.2c-5.3,0-9.7-3.2-9.7-7c0-3.9,4.4-7,9.7-7h74.2
				C852.5,94.5,856.9,97.7,856.9,101.5z"/>
			<g>
				<g>
					<path class="st0" d="M916.9,156.1H776.8c-2.8,0-5-2.3-5-5c0-2.8,2.3-5,5-5h140.1c2.8,0,5,2.3,5,5
						C921.9,153.9,919.7,156.1,916.9,156.1z"/>
				</g>
				<g>
					<path class="st0" d="M888.1,179.5h-84.5c-2.8,0-5-2.3-5-5c0-2.8,2.2-5,5-5h84.5c2.8,0,5,2.3,5,5
						C893.1,177.2,890.8,179.5,888.1,179.5z"/>
				</g>
				<g>
					<path class="st0" d="M938.3,202.8H803.6c-2.8,0-5-2.3-5-5c0-2.8,2.2-5,5-5h134.7c2.8,0,5,2.3,5,5
						C943.4,200.5,941.1,202.8,938.3,202.8z"/>
				</g>
				<g>
					<path class="st0" d="M916.9,226.1h-76.4c-2.8,0-5-2.2-5-5c0-2.8,2.2-5,5-5h76.4c2.8,0,5,2.3,5,5
						C921.9,223.9,919.7,226.1,916.9,226.1z"/>
				</g>
				<g>
					<path class="st0" d="M961.8,249.5H803.6c-2.8,0-5-2.3-5-5c0-2.8,2.2-5,5-5h158.2c2.8,0,5,2.3,5,5
						C966.8,247.2,964.6,249.5,961.8,249.5z"/>
				</g>
				<g>
					<path class="st0" d="M845.8,272.8h-69c-2.8,0-5-2.3-5-5c0-2.8,2.3-5,5-5h69c2.8,0,5,2.3,5,5
						C850.9,270.6,848.6,272.8,845.8,272.8z"/>
				</g>
				<g>
					<path class="st0" d="M916.9,296.2H803.6c-2.8,0-5-2.2-5-5c0-2.8,2.2-5,5-5h113.3c2.8,0,5,2.2,5,5
						C921.9,293.9,919.7,296.2,916.9,296.2z"/>
				</g>
			</g>
		</g>
		<path class="st2" d="M153.4,301.3c0-2.7-0.1-5.3-0.5-8l14.9-8.6c-3.7-18.9-13.7-35.6-27.6-47.8l-14.9,8.6c-4.2-3.2-8.9-5.9-13.8-8
			v-17.2c-8.7-3-18-4.6-27.6-4.6c-9.6,0-18.9,1.6-27.6,4.5v17.3c-4.9,2.1-9.5,4.8-13.8,8l-14.9-8.6c-14,12.2-23.9,28.9-27.6,47.8
			l15,8.7c-0.3,2.6-0.5,5.2-0.5,7.9c0,2.7,0.1,5.3,0.5,7.9L0,317.8c3.7,18.9,13.7,35.6,27.6,47.8l14.9-8.6c4.2,3.1,8.9,5.8,13.8,8
			v17.2c8.7,2.9,17.9,4.5,27.6,4.5c9.6,0,19-1.6,27.6-4.6V365c4.9-2.1,9.5-4.8,13.8-8l14.9,8.6c14-12.2,23.9-28.9,27.6-47.8
			l-14.9-8.6C153.2,306.6,153.4,304,153.4,301.3z M124.1,309.9c-1.8,8.6-6.3,16.1-12.6,21.8c-4.3,3.9-9.4,6.9-15,8.7
			c-4,1.3-8.2,2-12.6,2c-4.4,0-8.6-0.7-12.6-2c-5.6-1.8-10.7-4.8-15-8.7c-6.3-5.7-10.8-13.3-12.6-21.8c-0.6-2.8-0.9-5.7-0.9-8.7
			c0-3,0.3-5.9,0.9-8.7c1.8-8.6,6.3-16.1,12.6-21.8c4.3-3.9,9.4-6.9,15-8.7c4-1.3,8.2-2,12.6-2c4.4,0,8.6,0.7,12.6,2
			c5.6,1.8,10.7,4.8,15,8.7c6.2,5.7,10.7,13.2,12.6,21.8c0.6,2.8,0.9,5.7,0.9,8.7C125,304.3,124.7,307.2,124.1,309.9z"/>
		<g>
			<path class="st1" d="M309.7,95.1c0,10.6-8.7,19.3-19.3,19.3H184c-10.6,0-19.3-8.7-19.3-19.3V55.3c0-10.6,8.7-19.3,19.3-19.3
				h106.4c10.6,0,19.3,8.7,19.3,19.3V95.1z"/>
		</g>
		<g>
			<g>
				<path class="st0" d="M265.4,100.9c-1.2,0-2.4-0.4-3.3-1.3c-1.9-1.8-2-4.9-0.2-6.8l16.8-17.5l-16.8-17.5c-1.8-1.9-1.8-5,0.2-6.8
					c1.9-1.8,5-1.8,6.8,0.2l20,20.9c1.8,1.9,1.8,4.8,0,6.7l-20,20.9C268,100.4,266.7,100.9,265.4,100.9z"/>
			</g>
			<g>
				<path class="st0" d="M208.9,100.9c-1.3,0-2.5-0.5-3.5-1.5l-20-20.9c-1.8-1.9-1.8-4.8,0-6.7l20-20.9c1.8-1.9,4.9-2,6.8-0.2
					c1.9,1.8,2,4.9,0.2,6.8l-16.8,17.5l16.8,17.5c1.8,1.9,1.8,5-0.2,6.8C211.3,100.5,210.1,100.9,208.9,100.9z"/>
			</g>
			<g>
				<path class="st0" d="M229.3,100.9c-0.6,0-1.1-0.1-1.7-0.3c-2.5-0.9-3.8-3.7-2.8-6.2l15.7-41.7c0.9-2.5,3.7-3.8,6.2-2.8
					c2.5,0.9,3.8,3.7,2.8,6.2l-15.7,41.7C233.1,99.7,231.2,100.9,229.3,100.9z"/>
			</g>
		</g>
		<path class="st0" d="M793,603.3c0,44.3-126.4,145.1-282.3,145.1c-155.9,0-282.3-100.8-282.3-145.1c0-44.3,126.4-80.3,282.3-80.3
			C666.7,523,793,559,793,603.3z"/>
		<g>
			<path class="st2" d="M661.7,481.2c19.4,1.4,114.8,32.4,117.3,59c2.4,26.6-200.7,143.9-289.7,142.7
				c-89-1.2-259.2-111.2-253.2-137.4c6-26.2,70.4-61.2,110-64.3C395.7,477.4,661.7,481.2,661.7,481.2z"/>
			<path class="st2" d="M484.4,625.2c13.5,3.3,37.1,21.4,45.5,26.2c8.5,4.8,45.3,27.2,48.4,36.9c3,9.7,2.4,38.1-18.1,46.6
				c-20.6,8.5-89.5-15.1-98.5-23.6C451.3,644.2,484.4,625.2,484.4,625.2z"/>
			<path class="st4" d="M235.9,542.7c-6.9,10.3-8.9,51.4,0.2,65.9s107,79.8,220.1,102.8c-3.6-16.9,41.5-64.1,49.6-73
				C423.1,597.7,299,526.3,235.9,542.7z"/>
			<path class="st2" d="M492.8,644.6c-51.8-5.8-117.8,25-122.6,44.3c-4.8,19.3-0.5,42.3,11.5,53.8c12.1,11.5,91.7,6.7,132-24.8
				C522,685.3,492.8,644.6,492.8,644.6z"/>
			<path class="st5" d="M492.1,654c-21.6-0.9-63.7,10.2-75.8,21.1c7.3,18.7,12.7,45.9,6.7,55c24.2,4.2,71.2-7.9,84.6-18.7
				C508.7,693.8,492.1,654,492.1,654z"/>
			<path class="st4" d="M779,540.2c9.3,15.7,14.5,56.8,0,71.3S609.7,704.3,513.8,718c-14.5-13.7-25-65.3-21-73.4
				C557.3,595.5,703.2,531,779,540.2z"/>
		</g>
		<g>
			<path class="st6" d="M653.3,417.3c2.6,32.6-13.9,36.3-25.4,44.1s-7.9,31.4-3.6,71.3c-26,20.6-166.9,51.4-244.8,9.7
				c1.8-11.5,3-42.9,1.2-56.8s-8.5-21.8-32-35.7C325,436.1,349.8,286.7,360,274c10.3-12.7,73.8-52.6,107-57.4c0,0,50.8-3,71.3,0
				c20.6,3,94.9,38.1,114.9,61.1C673.2,300.6,651.4,394.3,653.3,417.3z"/>
			<path class="st1" d="M582.3,545.5c3.2-0.8,70.9-12.1,100.8-33.9c41.8-30.5-12.9-213.6-26.9-229.7c0,0-10.7-17.6-41.3-32.2
				c-23.3,14-17.7,78.2-16,91.4c5.2,39.9,21.7,94.9,25.4,107.6c-8.9,9.7-51.6,29-51.6,29L582.3,545.5z"/>
			<path class="st1" d="M427.5,549.5c0,0-29,1.3-56.4-8.1C272.5,507.6,320.7,318.8,360,274c0,0,13.2-14.2,30.6-23.1
				c14.3,5.9,25.8,43.6,17.4,86.6c-7.9,40.3-19.2,118.5-19.2,126.6c8.9,6.4,34.7,19.3,34.7,19.3L427.5,549.5z"/>
			<path class="st0" d="M637.9,570.5H367.1l-11.7-170.2c70.2-11,235.6-11,294.2,0L637.9,570.5z"/>
			<circle class="st5" cx="502.5" cy="481.2" r="18.1"/>
			<polygon class="st7" points="637.9,570.5 637.9,584.6 366.9,584.6 367.1,570.5 			"/>
		</g>
		<g>
			<path class="st8" d="M544.6,181.5c-1,10.9-2,37.9,4.8,47.6c-26.2,23-76.6,18.5-93.1,2.8c3.6-12.9,3.6-39.5,0-48
				c-3.6-8.5,42.7-14.9,42.7-14.9L544.6,181.5z"/>
			<path class="st2" d="M418.7,115c-32.3-76.6,15.9-79,15.9-79c10.5-35.2,75.7-40.6,97.5-33c35.9,12.5,60.6,50.7,44.3,109.4
				c0,0-20.2,88-68.8,87.8C458.7,200.1,418.7,115,418.7,115z"/>
			<path class="st8" d="M586.1,133c0,18.7-16.7,24-27,24c-10.4,0-7.4-16.7-7.4-27.1c0-10.5,1.4-20.8,11.8-20.8
				C573.9,109,586.1,113.8,586.1,133z"/>
			<path class="st8" d="M408,136.4c0,18.7,16.7,24,27,24s7.4-16.7,7.4-27.1s-1.4-20.8-11.8-20.8S408,117.3,408,136.4z"/>
			<path class="st9" d="M519.7,215.3c-19,8.6-48,7.5-60.9,0c0.2-5.9,0.4-13.4,0-17.7C474.1,202.5,519.7,215.3,519.7,215.3z"/>
			<path class="st10" d="M426.1,117.9c0,58,29,98.7,81.4,98.7s64.5-68.5,64.5-98.7S523.3,53,497.1,53
				C433.4,53,426.1,117.9,426.1,117.9z"/>
			<path class="st9" d="M426.1,133c21.4-13.5,27-35.7,31.8-38.5c28.1-16.1,47.6,12.2,87.1-1.6c0,0,8.1,24.9,27,32.5
				c0.9-16-19.5-43.4-31.5-54.3c-12-10.9-81.8-22.9-94.6,3.3C433,100.5,426.1,133,426.1,133z"/>
			<path class="st2" d="M426.1,133c15.7-10.3,23.4-33.3,24.6-42.1c35.5-26.2,62.1,7.7,97.1-2.4c2.8,12.9,15.7,31.9,24.2,36.9
				c1.6-10.1,7.1-26.9,2.7-38.2c-4.4-11.3-9.8-51.2-79.6-53.2c-69.8-2-80.3,42.7-78.7,56.4S426.1,133,426.1,133z"/>
			<ellipse class="st2" cx="526.6" cy="136.6" rx="4.5" ry="7.7"/>
			<ellipse class="st2" cx="477.2" cy="136.6" rx="4.5" ry="7.7"/>
			<path class="st11" d="M520.4,108.8c0,0,0-0.1,0.1-0.3c0.1-0.2,0.1-0.5,0.3-0.8c0.3-0.7,0.8-1.5,1.6-2.3c0.4-0.4,0.8-0.8,1.3-1.2
				c0.5-0.4,1.1-0.7,1.7-1c0.6-0.3,1.3-0.5,2-0.7c0.7-0.2,1.4-0.2,2.2-0.3c0.7,0,1.5,0,2.2,0.2c0.7,0.1,1.4,0.4,2.1,0.6
				c0.7,0.2,1.2,0.7,1.8,1c0.5,0.3,1,0.8,1.4,1.2c0.8,0.8,1.3,1.7,1.5,2.4c0.3,0.7,0.3,1.1,0.3,1.1l0,0.2c0,0.1-0.1,0.2-0.2,0.2
				c0,0-0.1,0-0.1,0c0,0-0.3-0.1-0.7-0.3c-0.5-0.2-1.1-0.5-1.9-0.8c-0.4-0.2-0.9-0.3-1.3-0.4c-0.5-0.1-1-0.3-1.5-0.3
				c-1.1-0.2-2.2-0.3-3.4-0.2c-2.3,0-4.6,0.5-6.3,1.1c-1.7,0.5-2.7,1.1-2.7,1.1c-0.1,0.1-0.2,0-0.3-0.1c0,0,0-0.1,0-0.1L520.4,108.8
				z"/>
			<path class="st11" d="M465.4,108.8c0,0,0.1-0.4,0.4-1.1c0.3-0.6,0.7-1.4,1.4-2.2c0.3-0.4,0.7-0.8,1.2-1.1c0.4-0.3,0.9-0.7,1.5-1
				c1.1-0.6,2.3-0.9,3.6-1c1.3-0.1,2.7,0.1,4,0.6c1.3,0.5,2.4,1.3,3.1,2.2c0.4,0.4,0.6,0.9,0.9,1.3c0.2,0.4,0.3,0.9,0.4,1.2
				c0.1,0.7,0.1,1.1,0.1,1.1l0,0.2c0,0.1-0.1,0.2-0.2,0.2c0,0-0.1,0-0.1,0c0,0-0.2-0.1-0.6-0.4c-0.4-0.3-1-0.5-1.6-0.9
				c-0.7-0.3-1.6-0.5-2.5-0.7c-1-0.1-2-0.1-3,0c-2.1,0.1-4.1,0.6-5.6,1.1c-1.5,0.5-2.5,0.9-2.5,0.9c-0.1,0-0.2,0-0.2-0.1
				c0,0,0-0.1,0-0.1L465.4,108.8z"/>
			<path class="st11" d="M510.7,154.3c0,0,0.1,0.3,0.3,0.9c0.2,0.6,0.5,1.4,0.9,2.4c0.8,2,1.9,4.7,2.4,7.7c0.3,1.5,0.4,3.1,0,4.7
				c-0.2,0.8-0.7,1.6-1.3,2.1c-0.6,0.5-1.4,0.8-2,0.9c-1.3,0.2-2.2-0.1-2.9-0.2c-0.6-0.2-1-0.3-1-0.3c-0.2-0.1-0.3-0.3-0.2-0.5
				c0.1-0.2,0.2-0.2,0.3-0.3l0,0c0,0,0.4,0,1,0c0.6,0,1.5-0.1,2.3-0.4c0.9-0.3,1.4-0.9,1.6-1.9c0.2-1,0-2.4-0.2-3.7
				c-0.5-2.7-1.4-5.5-1.7-7.7c-0.2-1.1-0.3-2-0.3-2.7c0-0.7,0-1,0-1l0,0c0-0.2,0.2-0.4,0.4-0.3C510.6,154,510.7,154.1,510.7,154.3z"
				/>
			<path class="st11" d="M486.5,184.2c0,0,0.6,0.3,1.6,0.7c0.5,0.3,1.2,0.5,1.8,0.7c0.7,0.3,1.4,0.5,2.3,0.7
				c0.9,0.3,1.8,0.5,2.9,0.7c1,0.3,2.1,0.3,3.2,0.6c1.1,0.1,2.3,0.2,3.5,0.3c1.2,0.1,2.4,0.1,3.6,0.1c1.2,0.1,2.4-0.1,3.6-0.1
				c1.2-0.1,2.4-0.1,3.5-0.3c1.1-0.2,2.2-0.3,3.3-0.5c1-0.2,2-0.5,2.9-0.6c0.9-0.3,1.7-0.5,2.4-0.7c0.7-0.3,1.3-0.5,1.8-0.7
				c0.9-0.5,1.5-0.8,1.5-0.8l0.1-0.1c0.4-0.2,0.8,0,1,0.4c0.1,0.3,0.1,0.6-0.1,0.8c0,0-0.4,0.5-1.3,1.4c-0.9,0.8-2.3,1.9-4.1,2.8
				c-0.9,0.4-1.9,1-3.1,1.3c-1.1,0.4-2.3,0.8-3.5,1c-1.2,0.3-2.6,0.5-3.9,0.7c-1.3,0.1-2.7,0.3-4.1,0.2c-1.4,0-2.7-0.1-4.1-0.2
				c-1.3-0.1-2.6-0.4-3.9-0.6c-1.2-0.3-2.5-0.6-3.6-1.1c-0.6-0.2-1.1-0.4-1.6-0.6c-0.5-0.3-1-0.5-1.4-0.7c-0.9-0.4-1.7-1-2.4-1.5
				c-0.7-0.5-1.3-0.9-1.7-1.4c-0.8-0.8-1.3-1.3-1.3-1.3c-0.3-0.3-0.3-0.8,0-1.1C485.9,184.2,486.3,184.1,486.5,184.2z"/>
		</g>
	</g>
</g>
</svg>
