<?xml version="1.0" encoding="utf-8"?>
<!-- Generator: Adobe Illustrator 19.0.0, SVG Export Plug-In . SVG Version: 6.00 Build 0)  -->
<svg version="1.1" id="Layer_1" xmlns="http://www.w3.org/2000/svg" xmlns:xlink="http://www.w3.org/1999/xlink" x="0px" y="0px"
	 viewBox="0 0 1000 389.1" style="enable-background:new 0 0 1000 389.1;" xml:space="preserve">
<style type="text/css">
	.st0{fill:url(#XMLID_544_);}
	.st1{fill:url(#XMLID_545_);}
</style>
<g id="XMLID_261_">
	<g id="XMLID_268_">
		<linearGradient id="XMLID_544_" gradientUnits="userSpaceOnUse" x1="385.6235" y1="104.1482" x2="419.918" y2="104.1482">
			<stop  offset="0" style="stop-color:#3377FF"/>
			<stop  offset="1" style="stop-color:#7733FF"/>
		</linearGradient>
		<path id="XMLID_567_" class="st0" d="M397,123.4c3,0,6-0.9,8.9-2.5c2.5-1.5,4.8-3.3,6.8-5.5c2-2.2,3.7-4.8,5-7.6
			c1.4-3,2.1-6.1,2.1-9c0-3.5-1.4-6.8-4-9.5c-2.7-2.9-6.1-4.4-10-4.4c-3.7,0-7,1.2-9.9,3.5c-2.3,1.9-4.2,4.1-5.8,6.7
			c-1.5,2.5-2.7,5.2-3.5,8.1c-0.8,2.8-1.2,5.3-1.2,7.5c0,3.1,0.8,5.9,2.5,8.2C390.2,121.9,393.3,123.4,397,123.4z"/>
	</g>
	<g id="XMLID_262_">
		<linearGradient id="XMLID_545_" gradientUnits="userSpaceOnUse" x1="5.001109e-005" y1="194.5431" x2="1000.0001" y2="194.5431">
			<stop  offset="0" style="stop-color:#3377FF"/>
			<stop  offset="1" style="stop-color:#7733FF"/>
		</linearGradient>
		<path id="XMLID_617_" class="st1" d="M985,171.4l-3.5,5.3c-4,6.2-8.6,12.9-13.6,19.8c-4.9,6.9-9.9,13.3-14.9,19.2
			c-4.8,5.7-9.6,10.4-14.3,14.1c-3.4,2.7-6.5,4.3-9,4.6c0-0.1,0-0.2,0-0.2c0-2.4,0.6-5.2,1.9-8.3c1.5-3.6,3.4-7.4,5.7-11.4
			c2.4-4.2,5-8.6,7.7-13c2.8-4.6,5.5-9.4,7.9-14.2c2.5-4.9,4.7-9.9,6.3-14.9c1.8-5.3,2.7-10.5,2.7-15.7c0-6.5-1-11.8-3-16.1
			c-2-4.3-4.5-7.7-7.4-10.3c-3-2.6-6.2-4.3-9.7-5.3c-3.2-0.9-6-1.3-8.5-1.3c-2.8,0-5.9,0.4-9.2,1.3c-3.3,0.8-6.8,2.2-10.5,4.2
			c-3.6,1.9-7.6,4.4-11.8,7.5c-1,0.7-2,1.5-3,2.3c-0.3-2.2-0.8-4.2-1.4-6c-1.2-3.3-2.9-6.2-5-8.6c-2.2-2.5-4.8-4.4-7.7-5.7
			c-2.9-1.3-5.9-1.9-9.1-1.9c-5.6,0-10.8,1.8-15.7,5.3c-4.2,3.1-8.6,7.4-13,12.8c-4.2,5.2-8.6,11.5-13,18.6
			c-4.4,7.1-9.3,14.9-14.6,23.1l-2.9,4.5l0,0l-2.5,3.9c-2.1,3.2-4.4,6.7-6.9,10.2c-2.5,3.5-5.2,7-8,10.5c-2.8,3.3-5.6,6.4-8.5,9
			c-2.8,2.5-5.6,4.6-8.4,6.2c-2.3,1.3-4.5,1.9-6.5,1.9c-0.5,0-0.8,0-1.1-0.1c-0.1-0.4-0.2-1.1-0.2-2.1c0-2.8,0.7-6.3,2-10.6
			c1.5-4.7,3.3-9.7,5.6-15.1c2.3-5.4,4.9-11,7.7-16.7c2.8-5.7,5.7-11.3,8.5-16.5c2.9-5.3,5.5-10.2,7.9-14.5c2.6-4.6,4.5-8.2,5.9-11
			l2.8-5.5l-14.6-6.4l-2.8,3.2c-2.4,2.7-4.8,5.4-7.1,8.1c-0.1,0.1-0.1,0.1-0.2,0.2c-2-3.3-4.6-6-7.9-8.1c-6-3.9-14.2-5.8-25.1-5.8
			c-4.8,0-10.2,0.7-16.1,2.2c-5.9,1.5-12.2,4-18.6,7.4c-6.4,3.4-12.9,7.9-19.5,13.4c-6.6,5.5-13,12.4-19,20.3
			c-4.6,6-8.3,11.9-11.2,17.5c-0.7-0.3-1.3-0.5-1.9-0.9c-1.2-0.7-2.2-1.6-3.2-2.5c2.6-6,4.7-12,6.3-17.7c1.9-7,2.9-13.3,2.9-18.8
			c0-8.4-1.4-14.4-4.3-18.2c-4-5.3-8.7-6.4-11.9-6.4c-2.5,0-5.1,0.8-7.8,2.2c-2.7,1.5-5,3.9-7,7.1c-1.8,2.9-3.2,6.4-4.4,10.8
			c-1.1,4.3-1.7,9.4-1.7,15.4c0,9.7,1.9,18.6,5.6,26.5c-2.5,4.6-5.4,9.4-8.7,14.3c-4,5.8-8.2,11.2-12.6,15.9
			c-4.3,4.6-8.5,8.5-12.7,11.4c-3.2,2.2-6.1,3.5-8.4,3.7c0,0,0,0,0-0.1c-0.3-0.8-0.5-1.9-0.6-3.1c-0.1-1.4-0.2-3-0.2-4.6
			c0-5.8,0.8-12.4,2.3-19.6c1.6-7.5,3.5-15.2,5.7-22.7c2.2-7.6,4.6-14.9,7.1-21.8c2.5-7,4.7-13,6.5-18l1.6-4.5l-16.1-10l-3.1,4.9
			c-3.9,6.1-7.7,13-11.4,20.4c-2.4,4.8-4.7,9.6-6.8,14.6l-0.2-0.2l-3.4,8.1c-3.1,7.5-6.8,14.9-11,21.8c-4.2,7-8.4,13.2-12.8,18.6
			c-4.2,5.2-8.4,9.4-12.4,12.5c-4.3,3.3-6.9,3.8-8,3.8c-2.4,0-2.5-7.2-2.5-8.7c0-3.8,0.6-8.4,1.8-13.7c1.2-5.5,3.1-11.7,5.7-18.4
			c2.6-6.8,6.1-14.4,10.2-22.4c4.1-8,9.1-16.6,15-25.6l3.2-4.9l-15.4-10L555,125c-5.9,5.1-11.6,11.1-17,17.8
			c-5.4,6.7-10.2,13.9-14.4,21.4c-1.8,3.2-3.4,6.5-4.9,9.8l-1.8,2.9c-4.9,8-10.1,15.3-15.4,21.8c-5.3,6.5-10.9,12.6-16.6,18
			c-5.7,5.4-11.7,10.5-17.7,15c-4,3-8.1,5.9-12.3,8.7c-0.3-0.8-0.7-1.5-1-2.2c-0.1-0.3-0.3-0.6-0.4-0.8c5.1-3.6,9.9-7.8,14.5-12.4
			c6-6,11.2-12.7,15.7-19.8c4.5-7.1,8.1-14.8,10.8-22.6c2.7-8,4.1-16.2,4.1-24.1c0-5.7-0.9-11-2.7-15.8c-1.8-4.8-4.4-9.1-7.7-12.5
			c-3.3-3.5-7.4-6.2-12.1-8.1c-4.6-1.9-9.9-2.9-15.6-2.9c-6,0-11.8,1.3-17.2,4c-5,2.5-9.8,5.7-14,9.6c-4.2,3.8-8,8-11.5,12.6
			c-3.4,4.4-6.4,8.8-9.1,13c-2.7,4.1-5,8-7,11.3c-0.4,0.7-0.8,1.3-1.2,1.9l0,0l-3.4,5.2l-3.4,4.5l0.3,0.2c-2.9,4.4-5.8,8.9-8.7,13.2
			c-3.7,5.6-7.6,10.7-11.4,15.1c-3.7,4.2-7.5,7.6-11.2,10.2c-3.1,2.2-6.2,3.2-9.3,3.2c-0.6,0-1-0.1-1.2-0.1
			c-0.1-0.3-0.2-0.9-0.2-1.9c0-2.8,0.7-6.3,2-10.6c1.4-4.6,3.3-9.6,5.5-14.9c2.3-5.4,4.9-11,7.8-16.7c2.9-5.7,5.8-11.3,8.6-16.6
			c2.8-5.3,5.5-10.2,7.9-14.6c2.5-4.6,4.5-8.2,5.9-11l2.8-5.5l-14.7-6.4l-2.8,3.3c-4.8,5.7-10.2,12.1-15.9,19
			c-5.8,7.1-11.3,14.6-16.3,22.2c-2.7,4.2-5.2,8.4-7.5,12.7c-2.2,3.7-4.4,7.6-6.6,11.6c-3.1,5.6-6.5,11.3-10,16.9
			c-3.4,5.5-7.1,10.9-10.8,15.9c-3.6,4.9-7.6,9.2-11.6,12.9c-3.9,3.5-8.2,6.4-12.6,8.5c-4.2,2-8.5,3-13.3,3c-2.2,0-2.8-0.7-3-0.9
			c-0.2-0.2-0.9-0.9-0.9-3c0-0.1,0-1.2,0.9-4.5c0.7-2.6,1.6-5.7,2.7-9.3c1.1-3.6,2.3-7.4,3.6-11.6c1.3-4.2,2.6-8.5,3.7-12.6
			c1.1-4.2,2.1-8.3,2.9-12.2c0.8-4.2,1.2-7.7,1.2-10.8c0-7.4-1.2-14.4-3.6-20.8c-1.3-3.5-2.9-6.8-4.6-10c4.7-1.5,9.2-3.5,13.4-6
			c6.6-3.8,12.4-8.6,17.1-14.2c4.8-5.6,8.6-11.9,11.3-18.9c2.7-7,4.1-14.6,4.1-22.4c0-9-1.2-17.4-3.7-24.9
			c-2.4-7.6-5.9-14.4-10.3-20.5c-4.4-6-9.6-11.4-15.6-15.9c-3.5-2.7-7.2-5.1-11.1-7.3c3.7-3,7.6-5.6,11.7-7.9l5.3-3l-8.8-14
			l-4.8,2.5c-4.6,2.4-9,4.9-13.1,7.6c-3.2,2.1-6.4,4.3-9.5,6.5c-5.7-1.7-11.6-3.1-17.5-4.1c-7-1.2-14.2-1.7-21.3-1.7
			c-20.4,0-39.4,1.8-56.6,5.3c-17.2,3.5-33,8.5-47.2,14.7C102.6,37,89.7,44.4,78.4,52.7C67.1,61,57.1,70,48.5,79.5
			c-8.6,9.5-16,19.4-22.1,29.5c-6.1,10.1-11.1,20.2-15,30.1c-3.9,9.9-6.8,19.6-8.6,28.7C0.9,177.1,0,185.5,0,193
			c0,12.5,2.1,23.8,6.2,33.5c4.1,9.8,9.9,18.1,17.1,24.8c7.2,6.7,15.7,11.8,25.2,15.2c9.4,3.4,19.7,5.1,30.4,5.1
			c13.7,0,26.3-2.6,37.4-7.6c10.9-5,21-11.9,29.9-20.5c8.8-8.5,16.9-18.5,24.1-29.8c7.1-11.1,13.8-23,20-35.5
			c6.2-12.4,12.2-25.3,17.9-38.5c0.6-1.3,1.1-2.6,1.7-3.9c-0.2,1-0.3,2-0.3,3.1c0,4.9,2.2,9,6.3,11.9c3.1,2.2,6.9,3.9,11.3,5
			c4,1,8.4,1.7,12.8,2.1c3,0.2,5.9,0.4,8.5,0.4c1.6,2.5,3,5.2,4,7.9c1.3,3.4,1.9,7.2,1.9,11.2c0,4.7-0.7,9.3-2.2,13.6
			c-1.6,4.8-3.5,9.7-5.5,14.5c-2.1,5.1-4,10.3-5.8,15.6c-1.9,5.7-2.8,11.8-2.8,18.1c0,9.8,2.8,17.6,8.4,23.2
			c5.6,5.6,13.3,8.4,23,8.4c9.7,0,18.6-2.3,26.3-6.8c7.4-4.3,14.4-10.3,20.9-17.9c3.8-4.4,7.5-9.3,11.2-14.8
			c0.9,1.6,1.9,3.1,3.2,4.5c4.5,5.1,10.9,7.6,18.9,7.6c7.8,0,15.1-2,21.7-6.1c6.2-3.8,11.9-8.6,16.9-14.3
			c4.9-5.5,9.5-11.6,13.5-18.1c3.6-5.9,6.9-11.4,9.9-16.7l0.1-0.1c1.5-1.7,3.2-4.2,5.3-7.6c1.9-3.1,4-6.5,6.5-10.2
			c2.4-3.6,5.1-7.5,8-11.4c2.8-3.7,5.8-7.2,9.1-10.2c3.1-2.9,6.4-5.3,9.8-7.2c3.1-1.7,6.3-2.5,9.6-2.5c1.4,0,2.7,0.2,3.9,0.7
			c1.1,0.4,2.1,1.1,3,2c0.9,0.9,1.7,2.2,2.3,3.9c0.6,1.8,1,4.1,1,6.8c0,5.7-1,12-2.9,18.6c-2,6.8-4.7,13.6-8,20.2
			c-3.3,6.5-7.1,12.7-11.4,18.3c-3.2,4.2-6.5,7.8-9.8,10.9c-4.7-2.6-9.6-3.9-14.9-3.9c-5.2,0-9.8,1.2-13.7,3.7
			c-4.6,2.9-7.2,7.4-7.2,12.8c0,5.1,2.2,9.4,6.4,12.3c3.6,2.5,8,3.8,13.1,3.8c3.3,0,6.9-0.6,11-1.8c0.3,1.7,0.5,3.8,0.5,6.2
			c-3.9,2.2-7.7,4.4-11.6,6.5c-4.9,2.6-9.8,5.3-14.7,8c-14.3,7.8-27.2,15.7-38.3,23.6c-11.2,8-20.7,15.9-28.3,23.6
			c-7.8,7.9-13.8,15.7-17.8,23.1c-4.2,7.8-6.4,15.4-6.4,22.4c0,2.9,0.4,6,1.3,9.2c0.9,3.3,2.5,6.4,4.6,9.2c2.2,2.9,5.1,5.3,8.7,7.1
			c3.6,1.8,8,2.8,13,2.8c6.5,0,14-1.9,22.1-5.8c7.8-3.6,15.8-8.6,24-14.9c8-6.2,16.1-13.5,23.9-21.7c7.8-8.3,14.9-17.3,21.2-26.8
			c6.2-9.6,11.4-19.6,15.5-29.9c3.7-9.5,5.9-19,6.7-28.4c6.6-4.1,13-8.5,19-12.9c7-5.1,13.7-10.8,20.1-16.8c4.5-4.3,9-8.9,13.3-13.8
			c0.3,2.1,0.6,4.2,1.1,6.1c1.1,4.2,2.8,7.9,5.1,11.1c2.5,3.3,5.6,6,9.4,7.8c3.7,1.8,8.1,2.7,13.1,2.7c4.6,0,9.2-1,13.6-3.1
			c4.1-1.9,8.1-4.5,11.9-7.9c3.2-2.8,6.4-6.2,9.5-9.9c0.3,1.4,0.6,2.6,1,3.9c1.2,3.7,2.9,6.9,5.1,9.4c2.2,2.5,4.9,4.5,7.8,5.7
			c2.9,1.3,6,1.9,9.2,1.9c6.7,0,13.4-1.7,19.9-5.1c6.1-3.2,12.1-7.4,17.6-12.6c5.5-5.1,10.6-11,15.4-17.5c3.2-4.4,6.2-8.9,8.9-13.5
			c1.3,0.9,2.7,1.8,4.1,2.5c1.1,0.5,2.2,1,3.3,1.4c-1.1,4.8-1.7,9.3-1.7,13.5c0,5.6,0.9,10.6,2.7,15c1.8,4.4,4.4,8.3,7.7,11.3
			c3.2,3,7,5.4,11.3,7c4.2,1.6,8.7,2.3,13.3,2.3c4.2,0,8.7-0.6,13.3-1.7c4.7-1.1,9.5-3.1,14.5-5.9c4.8-2.7,9.8-6.4,14.9-11
			c1.9-1.7,3.9-3.7,5.9-5.7c0.9,3.5,2.5,6.7,4.6,9.4c4.1,5.3,10.3,7.9,18.5,7.9c5.1,0,10.1-1,14.8-3c4.6-1.9,9-4.4,13.1-7.5
			c4-3,7.8-6.6,11.4-10.5c3.5-3.8,6.8-7.8,9.8-11.9c3-4.1,5.7-8.1,8.2-12.1c2.4-3.9,4.5-7.6,6.4-11c1.5-2.3,3.3-5.2,5.5-8.6
			c2.2-3.6,4.6-7.3,7.1-11.3c2.5-3.9,5.1-7.9,7.8-11.9c2.7-3.9,5.3-7.4,7.9-10.4c2.5-2.9,4.9-5.3,7.2-7.1c2.2-1.8,3.2-1.8,3.2-1.8
			c0,0,0.1,0,0.1,0c0,0.3,0,0.6,0,1.1c0,1.4-0.3,3.9-1.5,8.4c-1.1,3.8-3.1,8.8-5.9,14.7c-2.1,4.1-4.3,8.4-6.7,12.7
			c-2.4,4.4-4.9,8.7-7.5,12.9c-2.6,4.3-5.3,8.5-8,12.5c-2.7,4-5.3,7.8-7.9,11.3l-22.9,31.5l24.9,10.2l2.7-3.4
			c1.3-1.6,2.8-3.6,4.4-5.8c1.6-2.1,3.2-4.4,5-6.7c1.8-2.4,3.6-4.8,5.4-7.2c1.8-2.4,3.5-4.7,5.3-7c4.1-5.3,8.3-10.9,12.6-16.8
			c7.5-9.9,14.5-18.8,20.9-26.6c6.3-7.7,12.2-14.2,17.5-19.4c5.1-5,9.8-8.9,13.9-11.5c4.3-2.7,7-3.3,8.6-3.3c1.7,0,2.3,0.6,2.7,1.1
			c0.9,1.2,1.4,2.7,1.4,4.6c0,1.3-0.4,3.8-2.2,7.7c-1.8,3.8-4,7.9-6.6,12.4c-2.7,4.5-5.7,9.4-8.9,14.4c-3.3,5.2-6.4,10.5-9.2,15.6
			c-2.8,5.2-5.3,10.4-7.2,15.4c-2.1,5.4-3.2,10.6-3.2,15.4c0,3.3,0.6,6.5,1.9,9.4c1.2,2.9,2.9,5.5,5.1,7.7c2.2,2.3,4.9,4,7.9,5.3
			c3,1.2,6.4,1.9,10,1.9c6,0,11.9-1.7,17.7-5.1c5.3-3.1,10.4-7,15.4-11.6c4.8-4.5,9.4-9.6,13.6-15c4.1-5.3,7.9-10.5,11.2-15.3
			c3.3-4.9,6.1-9.3,8.4-13.1c2.2-3.7,3.6-6.1,4.4-7.2l3-4.5L985,171.4z M699.2,196c3.7-8.3,9.1-16.7,16-24.9
			c4.6-5.5,9.2-10.1,13.7-13.7c4.5-3.6,8.9-6.6,13.1-8.8c4.1-2.1,8.1-3.7,11.7-4.6c3.6-0.9,6.8-1.3,9.6-1.3c4.2,0,6.4,0.8,7.5,1.5
			c1.6,1,2.8,2.2,3.5,3.4c0.8,1.5,1.3,3,1.5,4.3c0.1,0.9,0.2,1.7,0.2,2.2c-1.4,2-2.9,4.4-4.5,7.1c-2.1,3.4-4.3,6.9-6.5,10.6
			c-2.2,3.7-4.4,7.3-6.4,10.7c-1.9,3.2-3.5,5.9-4.8,8c-3.7,4.7-7.5,9.6-11.4,14.5c-3.8,4.8-7.9,9.1-12,13c-4,3.7-8.3,6.8-12.9,9.1
			c-4.2,2.2-8.7,3.2-13.6,3.2c-4.3,0-6.2-1.6-7.2-2.8c-1.8-2.2-2.7-5.6-2.7-10.1C693.8,211.1,695.6,204,699.2,196z M337.6,365.3
			c-0.4-0.5-0.6-1-0.7-1.6c-0.2-1.1-0.4-2.2-0.4-3.3c0-0.3,0-1.4,0.5-4c0.2-1.1,0.8-3.3,2.6-6.9c1.6-3.1,4-6.8,7.2-11
			c3.3-4.2,7.9-9.1,13.7-14.5c5.9-5.4,13.6-11.4,22.8-17.8c9.2-6.4,20.6-13.4,33.9-20.8l8.7-4.9c-1.9,3.8-4,7.6-6.3,11.3
			c-2.7,4.5-5.7,9-8.9,13.4c-3.2,4.4-6.4,8.7-9.6,12.7c-8.1,10.1-15.5,18.5-22,24.9c-6.4,6.4-12.1,11.5-17,15.1
			c-4.7,3.5-8.8,5.9-12.1,7.2c-3.9,1.5-6.3,1.8-7.6,1.8c-2,0-2.9-0.3-3.2-0.5C338.5,366.1,338,365.7,337.6,365.3z M31.1,164.5
			c4.4-13,10.9-25.9,19.2-38.4c8.3-12.6,18.5-24.8,30.3-36.2c11.8-11.4,25.2-21.6,39.8-30.3C135,51,151.1,44,168.1,38.9
			c17-5.1,35.2-7.6,54.1-7.6c6.3,0,12.5,0.5,18.5,1.6c-7.7,7.6-14.7,15.9-21,24.6c-8.3,11.6-16,23.9-22.8,36.4
			c-6.8,12.5-13.1,25.4-18.9,38.2c-5.7,12.7-11.4,25.1-17,36.8c-5.5,11.7-11.3,22.8-17.2,33.1c-5.7,10-12,18.8-18.9,26.2
			c-6.7,7.2-14.2,13-22.4,17.2c-8,4.1-17.3,6.1-27.6,6.1c-7.6,0-14.6-1.3-20.8-4c-6.2-2.6-11.6-6.2-15.9-10.7
			c-4.4-4.5-7.8-9.8-10.2-15.9c-2.4-6.1-3.6-12.7-3.6-19.6C24.5,189.8,26.7,177.4,31.1,164.5z M212.1,130.9c4.4-10,9-19.9,13.6-29.5
			c6-12.4,12.3-24.3,18.8-35.4c5.6-9.6,11.8-18.3,18.4-25.9c3.4,1.7,6.6,3.6,9.5,5.8c3.9,3,7.4,6.5,10.3,10.4
			c2.9,3.9,5.1,8.3,6.7,13.2c1.6,4.9,2.4,10.4,2.4,16.4c0,5.7-1,11.4-2.9,16.8c-1.9,5.5-4.7,10.6-8.1,15c-3.4,4.5-7.6,8.4-12.3,11.6
			c-3.9,2.6-8,4.6-12.4,5.9c-3.9-2.9-7.9-5.4-11.9-7.3c-5.2-2.5-10.7-3.8-16.3-3.8c-5.4,0-9.8,1.2-12.9,3.7
			C213.9,128.8,212.9,129.8,212.1,130.9z"/>
	</g>
</g>
</svg>
